999
DXF file: 15769.dxf
999
Pro/ENGINEER 2005030 by Parametric Technology Corporation
0
SECTION
2
HEADER
9
$ACADVER
1
AC1014
9
$HANDSEED
5
       2B3
9
$EXTMAX
10
139.7000000000
20
107.9500000000
9
$EXTMIN
10
0.0000000000
20
0.0000000000
9
$LIMMIN
10
0.0000000000
20
0.0000000000
9
$LIMMAX
10
139.7000000000
20
107.9500000000
9
$VIEWCTR
10
69.8500000000
20
53.9750000000
9
$VIEWSIZE
40
107.9500000000
9
$CLAYER
8
0
9
$LTSCALE
40
7.6835000000
9
$CELTYPE
6
BYLAYER
9
$DIMSCALE
40
1
9
$DIMASZ
40
0.1875000000
9
$DIMEXO
40
0.8731250000
9
$DIMDLI
40
5.3086000000
9
$DIMEXE
40
2.5146000000
9
$DIMCEN
40
1.2573000000
9
$DIMLFAC
40
1.0000000000
9
$DIMTXT
40
0.8000000000
9
$DIMTOL
70
0
9
$DIMLIM
70
0
9
$DIMTFAC
40
1.0000000000
9
$MEASUREMENT
70
1
0
ENDSEC
0
SECTION
2
CLASSES
0
ENDSEC
0
SECTION
2
TABLES
0
TABLE
2
VPORT
5
8
100
AcDbSymbolTable
70
2
0
VPORT
5
1F4
100
AcDbSymbolTableRecord
100
AcDbViewportTableRecord
2
*ACTIVE
70
0
10
0.0
20
0.0
11
1.0
21
1.0
12
69.8500000000
22
53.9750000000
13
0.0
23
0.0
14
1.0
24
1.0
15
0.0
25
0.0
16
0.0
26
0.0
36
1.0
17
0.0
27
0.0
37
0.0
40
107.9500000000
41
1.2941176471
42
50.0
43
0.0
44
0.0
50
0.0
51
0.0
71
0
72
100
73
1
74
1
75
0
76
0
77
0
78
0
0
ENDTAB
0
TABLE
2
LTYPE
5
5
100
AcDbSymbolTable
70
6
0
LTYPE
5
14
100
AcDbSymbolTableRecord
100
AcDbLinetypeTableRecord
2
BYBLOCK
70
0
3

72
65
73
0
40
0.0
0
LTYPE
5
15
100
AcDbSymbolTableRecord
100
AcDbLinetypeTableRecord
2
BYLAYER
70
0
3

72
65
73
0
40
0.0
0
LTYPE
5
16
100
AcDbSymbolTableRecord
100
AcDbLinetypeTableRecord
2
CONTINUOUS
70
64
3
Solid line
72
65
73
0
40
0
0
LTYPE
5
1F5
100
AcDbSymbolTableRecord
100
AcDbLinetypeTableRecord
2
CENTER
70
64
3
____ _ ____ _ ____ _ ____ _ ____ _ ____ _ ____
72
65
73
4
40
0.6
49
0.375
74
0
49
-0.075
74
0
49
0.075
74
0
49
-0.075
74
0
0
LTYPE
5
1F6
100
AcDbSymbolTableRecord
100
AcDbLinetypeTableRecord
2
HIDDEN
70
64
3
- - - - - - - - - - - - - - - - - - - -
72
65
73
2
40
0.2
49
0.1
74
0
49
-0.1
74
0
0
LTYPE
5
1F7
100
AcDbSymbolTableRecord
100
AcDbLinetypeTableRecord
2
PHANTOM
70
64
3
_____ _ _ _____ _ _ _____ _ _ _____
72
65
73
6
40
0.8
49
0.45
74
0
49
-0.05
74
0
49
0.1
74
0
49
-0.05
74
0
49
0.1
74
0
49
-0.05
74
0
0
LTYPE
5
1F8
100
AcDbSymbolTableRecord
100
AcDbLinetypeTableRecord
2
DOT
70
64
3
. . . . . . . . . . . . . . . . . . . .
72
65
73
2
40
0.2
49
0.1
74
0
49
-0.1
74
0
0
LTYPE
5
1F9
100
AcDbSymbolTableRecord
100
AcDbLinetypeTableRecord
2
DASHED
70
64
3
- - - - - - - - - - - - - - - - - - - -
72
65
73
2
40
0.2
49
0.1
74
0
49
-0.1
74
0
0
ENDTAB
0
TABLE
2
LAYER
5
2
100
AcDbSymbolTable
70
36
0
LAYER
5
10
100
AcDbSymbolTableRecord
100
AcDbLayerTableRecord
2
0
70
0
62
7
6
CONTINUOUS
0
LAYER
5
1FA
100
AcDbSymbolTableRecord
100
AcDbLayerTableRecord
2
DEFAULT_1
70
0
62
7
6
CENTER
0
LAYER
5
1FB
100
AcDbSymbolTableRecord
100
AcDbLayerTableRecord
2
DEFAULT_2
70
0
62
8
6
HIDDEN
0
LAYER
5
1FC
100
AcDbSymbolTableRecord
100
AcDbLayerTableRecord
2
DEFAULT_3
70
0
62
7
6
PHANTOM
0
LAYER
5
1FD
100
AcDbSymbolTableRecord
100
AcDbLayerTableRecord
2
LAYER_CSYS
70
0
62
7
6
CONTINUOUS
0
LAYER
5
1FE
100
AcDbSymbolTableRecord
100
AcDbLayerTableRecord
2
LAYER_DETAIL_ITEM
70
0
62
7
6
CONTINUOUS
0
LAYER
5
1FF
100
AcDbSymbolTableRecord
100
AcDbLayerTableRecord
2
LAYER_FEATURE
70
0
62
7
6
CONTINUOUS
0
LAYER
5
200
100
AcDbSymbolTableRecord
100
AcDbLayerTableRecord
2
LAYER_GEOM_FEAT
70
0
62
7
6
CONTINUOUS
0
LAYER
5
201
100
AcDbSymbolTableRecord
100
AcDbLayerTableRecord
2
LAYER_NOGEOM_FEAT
70
0
62
7
6
CONTINUOUS
0
LAYER
5
202
100
AcDbSymbolTableRecord
100
AcDbLayerTableRecord
2
LAYER_NOTE
70
0
62
7
6
CONTINUOUS
0
LAYER
5
203
100
AcDbSymbolTableRecord
100
AcDbLayerTableRecord
2
LAYER_QUILT
70
0
62
7
6
CONTINUOUS
0
ENDTAB
0
TABLE
2
STYLE
5
3
100
AcDbSymbolTable
70
1
0
STYLE
5
11
100
AcDbSymbolTableRecord
100
AcDbTextStyleTableRecord
2
STANDARD
70
0
40
0.0
41
0.8000000000
50
0.0
71
0
42
0.2
3
txt
4

0
ENDTAB
0
TABLE
2
VIEW
5
6
100
AcDbSymbolTable
70
0
0
ENDTAB
0
TABLE
2
UCS
5
7
100
AcDbSymbolTable
70
0
0
ENDTAB
0
TABLE
2
APPID
5
9
100
AcDbSymbolTable
70
1
0
APPID
5
204
100
AcDbSymbolTableRecord
100
AcDbRegAppTableRecord
2
ACAD
70
0
0
ENDTAB
0
TABLE
2
DIMSTYLE
5
A
100
AcDbSymbolTable
70
1
0
DIMSTYLE
105
205
100
AcDbSymbolTableRecord
100
AcDbDimStyleTableRecord
2
STANDARD
70
0
3

4

5

6

7

40
1.0
41
0.1875000000
42
0.0625
43
0.38
44
0.18
45
0.0
46
0.0
47
0.0100000000
48
0.0100000000
140
0.8000000000
141
0.09
142
0.0
143
25.4
144
1.0000000000
145
0.0
146
1.0000000000
147
0.09
71
0
72
0
73
1
74
1
75
0
76
0
77
0
78
8
170
0
171
2
172
0
173
0
174
0
175
0
176
0
177
0
178
0
270
2
271
2
272
2
273
2
274
2
340
11
275
0
280
0
281
0
282
0
283
1
284
8
285
0
286
0
287
3
288
0
0
ENDTAB
0
TABLE
2
BLOCK_RECORD
5
1
100
AcDbSymbolTable
70
0
0
BLOCK_RECORD
5
1B
100
AcDbSymbolTableRecord
100
AcDbBlockTableRecord
2
*MODEL_SPACE
0
BLOCK_RECORD
5
1C
100
AcDbSymbolTableRecord
100
AcDbBlockTableRecord
2
*PAPER_SPACE
0
ENDTAB
0
ENDSEC
0
SECTION
2
BLOCKS
0
BLOCK
5
1E
100
AcDbEntity
8
0
100
AcDbBlockBegin
2
*MODEL_SPACE
70
0
10
0.0
20
0.0
30
0.0
3
*MODEL_SPACE
1

0
ENDBLK
5
1F
100
AcDbEntity
8
0
100
AcDbBlockEnd
0
BLOCK
5
20
100
AcDbEntity
8
0
100
AcDbBlockBegin
2
*PAPER_SPACE
70
0
10
0.0
20
0.0
30
0.0
3
*PAPER_SPACE
1

0
ENDBLK
5
21
100
AcDbEntity
8
0
100
AcDbBlockEnd
0
ENDSEC
0
SECTION
2
ENTITIES
0
TEXT
5
206
100
AcDbEntity
8
LAYER_DETAIL_ITEM
100
AcDbText
62
2
6
CONTINUOUS
10
108.4280374753
20
15.7084197872
7
STANDARD
40
1.9050000000
1
UNIT: mm
41
0.8000000000
72
0
100
AcDbText
0
TEXT
5
207
100
AcDbEntity
8
LAYER_DETAIL_ITEM
100
AcDbText
62
2
6
CONTINUOUS
10
108.4280374753
20
11.1890555984
7
STANDARD
40
1.9050000000
1
SCALE: 1:1.00
41
0.8000000000
72
0
100
AcDbText
0
LINE
5
208
100
AcDbEntity
8
0
100
AcDbLine
62
7
6
CONTINUOUS
10
0.0000000000
20
0.0000000000
11
0.0000000000
21
107.9500000000
0
LINE
5
209
100
AcDbEntity
8
0
100
AcDbLine
62
7
6
CONTINUOUS
10
0.0000000000
20
0.0000000000
11
139.7000000000
21
0.0000000000
0
LINE
5
20A
100
AcDbEntity
8
0
100
AcDbLine
62
7
6
CONTINUOUS
10
0.0000000000
20
107.9500000000
11
139.7000000000
21
107.9500000000
0
LINE
5
20B
100
AcDbEntity
8
0
100
AcDbLine
62
7
6
CONTINUOUS
10
139.7000000000
20
0.0000000000
11
139.7000000000
21
107.9500000000
0
LINE
5
20C
100
AcDbEntity
8
0
100
AcDbLine
62
7
6
CONTINUOUS
10
42.8277655546
20
51.8478347110
11
42.8277655546
21
49.3478347110
0
LINE
5
20D
100
AcDbEntity
8
0
100
AcDbLine
62
7
6
CONTINUOUS
10
49.6527655546
20
45.8478347110
11
49.4027655546
21
45.8478347110
0
LINE
5
20E
100
AcDbEntity
8
0
100
AcDbLine
62
7
6
CONTINUOUS
10
43.3477655546
20
45.8478347110
11
43.7077655546
21
45.8478347110
0
LINE
5
20F
100
AcDbEntity
8
0
100
AcDbLine
62
7
6
CONTINUOUS
10
43.3477655546
20
46.3478347110
11
43.7077655546
21
46.3478347110
0
LINE
5
210
100
AcDbEntity
8
0
100
AcDbLine
62
7
6
CONTINUOUS
10
49.4027655546
20
46.3478347110
11
49.6527655546
21
46.3478347110
0
LINE
5
211
100
AcDbEntity
8
0
100
AcDbLine
62
7
6
CONTINUOUS
10
43.3477655546
20
45.8478347110
11
43.3477655546
21
49.3478347110
0
LINE
5
212
100
AcDbEntity
8
0
100
AcDbLine
62
7
6
CONTINUOUS
10
43.3477655546
20
51.8478347110
11
43.3477655546
21
57.4678347110
0
LINE
5
213
100
AcDbEntity
8
0
100
AcDbLine
62
7
6
CONTINUOUS
10
43.7077655546
20
57.9478347110
11
43.7077655546
21
51.8478347110
0
LINE
5
214
100
AcDbEntity
8
0
100
AcDbLine
62
7
6
CONTINUOUS
10
43.7077655546
20
45.8478347110
11
43.7077655546
21
49.3478347110
0
LINE
5
215
100
AcDbEntity
8
0
100
AcDbLine
62
7
6
CONTINUOUS
10
43.7277655546
20
51.8478347110
11
43.7277655546
21
59.9478303825
0
LINE
5
216
100
AcDbEntity
8
0
100
AcDbLine
62
7
6
CONTINUOUS
10
46.0277655546
20
48.8435581780
11
45.5575200804
21
49.3478347109
0
LINE
5
217
100
AcDbEntity
8
0
100
AcDbLine
62
7
6
CONTINUOUS
10
46.0277655546
20
46.3478347110
11
46.0277655546
21
48.8435581780
0
LINE
5
218
100
AcDbEntity
8
0
100
AcDbLine
62
7
6
CONTINUOUS
10
42.8277655546
20
49.3478347110
11
57.2277655546
21
49.3478347110
0
LINE
5
219
100
AcDbEntity
8
0
100
AcDbLine
62
7
6
CONTINUOUS
10
47.0277655546
20
48.8435581780
11
47.0277655546
21
46.3478347110
0
LINE
5
21A
100
AcDbEntity
8
0
100
AcDbLine
62
7
6
CONTINUOUS
10
49.4027655546
20
45.8478347110
11
49.4027655546
21
49.3478347110
0
LINE
5
21B
100
AcDbEntity
8
0
100
AcDbLine
62
7
6
CONTINUOUS
10
43.7277655546
20
51.8478347110
11
42.8277655546
21
51.8478347110
0
LINE
5
21C
100
AcDbEntity
8
0
100
AcDbLine
62
7
6
CONTINUOUS
10
49.6527655546
20
45.8478347110
11
49.6527655546
21
49.3478347110
0
LINE
5
21D
100
AcDbEntity
8
0
100
AcDbLine
62
7
6
CONTINUOUS
10
47.4980110288
20
49.3478347109
11
47.0277655546
21
48.8435581780
0
LINE
5
21E
100
AcDbEntity
8
0
100
AcDbLine
62
7
6
CONTINUOUS
10
43.7277655546
20
55.8478347110
11
53.7277655546
21
55.8478347110
0
LINE
5
21F
100
AcDbEntity
8
0
100
AcDbLine
62
7
6
CONTINUOUS
10
53.7277655546
20
55.8478347110
11
53.7277655546
21
60.3478347110
0
LINE
5
220
100
AcDbEntity
8
0
100
AcDbLine
62
7
6
CONTINUOUS
10
54.7277655546
20
60.3478347110
11
54.7277655546
21
58.6478347110
0
LINE
5
221
100
AcDbEntity
8
0
100
AcDbLine
62
7
6
CONTINUOUS
10
56.2277655546
20
58.6478347110
11
56.2277655546
21
60.3478347110
0
LINE
5
222
100
AcDbEntity
8
0
100
AcDbLine
62
7
6
CONTINUOUS
10
54.7277655546
20
58.6478347110
11
56.2277655546
21
58.6478347110
0
LINE
5
223
100
AcDbEntity
8
0
100
AcDbLine
62
7
6
CONTINUOUS
10
43.7277655546
20
59.9478347110
11
53.7277655546
21
59.9478347110
0
LINE
5
224
100
AcDbEntity
8
0
100
AcDbLine
62
7
6
CONTINUOUS
10
57.2277655546
20
60.3478347110
11
57.2277655546
21
49.3478347110
0
LINE
5
225
100
AcDbEntity
8
0
100
AcDbLine
62
7
6
CONTINUOUS
10
54.7277655546
20
60.1478347110
11
56.2277655546
21
60.1478347110
0
LINE
5
226
100
AcDbEntity
8
0
100
AcDbLine
62
7
6
CONTINUOUS
10
57.2277655546
20
60.3478347110
11
56.2277655546
21
60.3478347110
0
LINE
5
227
100
AcDbEntity
8
0
100
AcDbLine
62
7
6
CONTINUOUS
10
53.7277655546
20
60.3478347110
11
54.7277655546
21
60.3478347110
0
LINE
5
228
100
AcDbEntity
8
0
100
AcDbLine
62
7
6
CONTINUOUS
10
42.8277655546
20
85.6526041970
11
42.8277655546
21
82.6526041970
0
LINE
5
229
100
AcDbEntity
8
0
100
AcDbLine
62
7
6
CONTINUOUS
10
42.8277655546
20
88.6526041970
11
42.8277655546
21
91.6526041970
0
LINE
5
22A
100
AcDbEntity
8
0
100
AcDbLine
62
7
6
CONTINUOUS
10
43.3477655546
20
85.6526041970
11
43.3477655546
21
88.6526041970
0
LINE
5
22B
100
AcDbEntity
8
0
100
AcDbLine
62
7
6
CONTINUOUS
10
43.7077655546
20
88.6526041970
11
43.7077655546
21
85.6526041970
0
LINE
5
22C
100
AcDbEntity
8
0
100
AcDbLine
62
7
6
CONTINUOUS
10
43.7277655546
20
82.6526041970
11
43.7277655546
21
91.6526041970
0
LINE
5
22D
100
AcDbEntity
8
0
100
AcDbLine
62
7
6
CONTINUOUS
10
45.2777655546
20
91.6526041970
11
45.2777655546
21
92.0526041970
0
LINE
5
22E
100
AcDbEntity
8
0
100
AcDbLine
62
7
6
CONTINUOUS
10
42.8277655546
20
82.6526041970
11
57.2277655546
21
82.6526041970
0
LINE
5
22F
100
AcDbEntity
8
0
100
AcDbLine
62
7
6
CONTINUOUS
10
53.7277655546
20
83.0526041970
11
43.7277655546
21
83.0526041970
0
LINE
5
230
100
AcDbEntity
8
0
100
AcDbLine
62
7
6
CONTINUOUS
10
54.7277655546
20
84.1526041970
11
56.2277655546
21
84.1526041970
0
LINE
5
231
100
AcDbEntity
8
0
100
AcDbLine
62
7
6
CONTINUOUS
10
47.7777655546
20
92.0526041970
11
47.7777655546
21
91.6526041970
0
LINE
5
232
100
AcDbEntity
8
0
100
AcDbLine
62
7
6
CONTINUOUS
10
42.8277655546
20
85.6526041970
11
43.7077655546
21
85.6526041970
0
LINE
5
233
100
AcDbEntity
8
0
100
AcDbLine
62
7
6
CONTINUOUS
10
42.8277655546
20
88.6526041970
11
43.7077655546
21
88.6526041970
0
LINE
5
234
100
AcDbEntity
8
0
100
AcDbLine
62
7
6
CONTINUOUS
10
56.2277655546
20
90.1526041970
11
54.7277655546
21
90.1526041970
0
LINE
5
235
100
AcDbEntity
8
0
100
AcDbLine
62
7
6
CONTINUOUS
10
53.7277655546
20
82.6526041970
11
53.7277655546
21
91.6526041970
0
LINE
5
236
100
AcDbEntity
8
0
100
AcDbLine
62
7
6
CONTINUOUS
10
43.7277655546
20
91.2526041970
11
53.7277655546
21
91.2526041970
0
LINE
5
237
100
AcDbEntity
8
0
100
AcDbLine
62
7
6
CONTINUOUS
10
42.8277655546
20
91.6526041970
11
57.2277655546
21
91.6526041970
0
LINE
5
238
100
AcDbEntity
8
0
100
AcDbLine
62
7
6
CONTINUOUS
10
54.7277655546
20
91.6526041970
11
54.7277655546
21
82.6526041970
0
LINE
5
239
100
AcDbEntity
8
0
100
AcDbLine
62
7
6
CONTINUOUS
10
45.2777655546
20
92.0526041970
11
47.7777655546
21
92.0526041970
0
LINE
5
23A
100
AcDbEntity
8
0
100
AcDbLine
62
7
6
CONTINUOUS
10
56.2277655546
20
82.6526041970
11
56.2277655546
21
91.6526041970
0
LINE
5
23B
100
AcDbEntity
8
0
100
AcDbLine
62
7
6
CONTINUOUS
10
57.2277655546
20
91.6526041970
11
57.2277655546
21
82.6526041970
0
LINE
5
23C
100
AcDbEntity
8
0
100
AcDbLine
62
7
6
CONTINUOUS
10
13.2082023802
20
45.8478347110
11
12.8082023802
21
45.8478347110
0
LINE
5
23D
100
AcDbEntity
8
0
100
AcDbLine
62
7
6
CONTINUOUS
10
12.8082023802
20
46.3478347110
11
13.2082023802
21
46.3478347110
0
LINE
5
23E
100
AcDbEntity
8
0
100
AcDbLine
62
7
6
CONTINUOUS
10
12.8082023802
20
45.8478375754
11
12.8082023802
21
51.8579367620
0
LINE
5
23F
100
AcDbEntity
8
0
100
AcDbLine
62
7
6
CONTINUOUS
10
13.2082023802
20
45.8478375754
11
13.2082023802
21
60.3478347110
0
LINE
5
240
100
AcDbEntity
8
0
100
AcDbLine
62
7
6
CONTINUOUS
10
12.8082023802
20
48.8435581780
11
13.2082023802
21
48.8435581780
0
LINE
5
241
100
AcDbEntity
8
0
100
AcDbLine
62
7
6
CONTINUOUS
10
13.2082023802
20
49.3478347110
11
17.2082023802
21
49.3478347110
0
LINE
5
242
100
AcDbEntity
8
0
100
AcDbLine
62
7
6
CONTINUOUS
10
18.2082023802
20
49.3478347110
11
22.2082023802
21
49.3478347110
0
LINE
5
243
100
AcDbEntity
8
0
100
AcDbLine
62
7
6
CONTINUOUS
10
13.2082023802
20
49.6478347110
11
12.8082023802
21
49.6478347110
0
LINE
5
244
100
AcDbEntity
8
0
100
AcDbLine
62
7
6
CONTINUOUS
10
17.2082023802
20
49.4478347110
11
16.2082023805
21
50.5202034214
0
LINE
5
245
100
AcDbEntity
8
0
100
AcDbLine
62
7
6
CONTINUOUS
10
16.2082023802
20
49.3478347110
11
16.2082023802
21
57.9478347110
0
LINE
5
246
100
AcDbEntity
8
0
100
AcDbLine
62
7
6
CONTINUOUS
10
16.2082023802
20
51.8478347110
11
13.2082023802
21
51.8478347110
0
LINE
5
247
100
AcDbEntity
8
0
100
AcDbLine
62
7
6
CONTINUOUS
10
19.2082023802
20
51.8478347110
11
22.2082023802
21
51.8478347110
0
LINE
5
248
100
AcDbEntity
8
0
100
AcDbLine
62
7
6
CONTINUOUS
10
17.2082023802
20
46.3478347110
11
17.2082023802
21
49.4478347110
0
LINE
5
249
100
AcDbEntity
8
0
100
AcDbLine
62
7
6
CONTINUOUS
10
18.2082023802
20
49.4478347110
11
18.2082023802
21
46.3478347110
0
LINE
5
24A
100
AcDbEntity
8
0
100
AcDbLine
62
7
6
CONTINUOUS
10
19.2082023802
20
49.3478347110
11
19.2082023802
21
57.9478347110
0
LINE
5
24B
100
AcDbEntity
8
0
100
AcDbLine
62
7
6
CONTINUOUS
10
22.2082023802
20
55.8478347110
11
21.8082023802
21
55.8478347110
0
LINE
5
24C
100
AcDbEntity
8
0
100
AcDbLine
62
7
6
CONTINUOUS
10
13.6082023802
20
55.8478347110
11
13.2082023802
21
55.8478347110
0
LINE
5
24D
100
AcDbEntity
8
0
100
AcDbLine
62
7
6
CONTINUOUS
10
19.2082023798
20
50.5202034214
11
18.2082023802
21
49.4478347110
0
LINE
5
24E
100
AcDbEntity
8
0
100
AcDbLine
62
7
6
CONTINUOUS
10
19.2082023802
20
57.4678347110
11
16.2082023802
21
57.4678347110
0
LINE
5
24F
100
AcDbEntity
8
0
100
AcDbLine
62
7
6
CONTINUOUS
10
22.2082023802
20
49.3478347110
11
22.2082023802
21
60.3478347110
0
LINE
5
250
100
AcDbEntity
8
0
100
AcDbLine
62
7
6
CONTINUOUS
10
16.2082023802
20
57.9478347110
11
19.2082023802
21
57.9478347110
0
LINE
5
251
100
AcDbEntity
8
0
100
AcDbLine
62
7
6
CONTINUOUS
10
22.2082023802
20
60.3478347110
11
13.2082023802
21
60.3478347110
0
LINE
5
252
100
AcDbEntity
8
0
100
AcDbLine
62
7
6
CONTINUOUS
10
42.8277655546
20
23.4014708761
11
42.8277655546
21
20.4014708761
0
LINE
5
253
100
AcDbEntity
8
0
100
AcDbLine
62
7
6
CONTINUOUS
10
42.8277655546
20
14.4014708761
11
42.8277655546
21
17.4014708761
0
LINE
5
254
100
AcDbEntity
8
0
100
AcDbLine
62
7
6
CONTINUOUS
10
43.3477655546
20
17.4014708764
11
43.3477655546
21
20.4014708757
0
LINE
5
255
100
AcDbEntity
8
0
100
AcDbLine
62
7
6
CONTINUOUS
10
43.7077655546
20
17.4014708761
11
43.7077655546
21
20.4014708761
0
LINE
5
256
100
AcDbEntity
8
0
100
AcDbLine
62
7
6
CONTINUOUS
10
45.2777655546
20
14.4014708761
11
45.2777655546
21
14.0014708761
0
LINE
5
257
100
AcDbEntity
8
0
100
AcDbLine
62
7
6
CONTINUOUS
10
45.2777655546
20
14.0014708761
11
47.7777655546
21
14.0014708761
0
LINE
5
258
100
AcDbEntity
8
0
100
AcDbLine
62
7
6
CONTINUOUS
10
46.0277655546
20
14.0014708761
11
46.0277655546
21
14.4014708761
0
LINE
5
259
100
AcDbEntity
8
0
100
AcDbLine
62
7
6
CONTINUOUS
10
42.8277655546
20
14.4014708761
11
57.2277655546
21
14.4014708761
0
LINE
5
25A
100
AcDbEntity
8
0
100
AcDbLine
62
7
6
CONTINUOUS
10
47.0277655546
20
14.4014708761
11
47.0277655546
21
14.0014708761
0
LINE
5
25B
100
AcDbEntity
8
0
100
AcDbLine
62
7
6
CONTINUOUS
10
47.7777655546
20
14.0014708761
11
47.7777655546
21
14.4014708761
0
LINE
5
25C
100
AcDbEntity
8
0
100
AcDbLine
62
7
6
CONTINUOUS
10
42.8277655546
20
17.4014708761
11
43.7077655546
21
17.4014708761
0
LINE
5
25D
100
AcDbEntity
8
0
100
AcDbLine
62
7
6
CONTINUOUS
10
49.4027655546
20
18.4014708761
11
49.4027655546
21
19.4014708761
0
LINE
5
25E
100
AcDbEntity
8
0
100
AcDbLine
62
7
6
CONTINUOUS
10
49.6527655546
20
19.4014708761
11
49.6527655546
21
18.4014708761
0
LINE
5
25F
100
AcDbEntity
8
0
100
AcDbLine
62
7
6
CONTINUOUS
10
49.6527655546
20
18.4014708761
11
49.4027655546
21
18.4014708761
0
LINE
5
260
100
AcDbEntity
8
0
100
AcDbLine
62
7
6
CONTINUOUS
10
43.7077655546
20
18.4014708761
11
43.3477655546
21
18.4014708761
0
LINE
5
261
100
AcDbEntity
8
0
100
AcDbLine
62
7
6
CONTINUOUS
10
43.3477655546
20
19.4014708761
11
43.7077655546
21
19.4014708761
0
LINE
5
262
100
AcDbEntity
8
0
100
AcDbLine
62
7
6
CONTINUOUS
10
49.4027655546
20
19.4014708761
11
49.6527655546
21
19.4014708761
0
LINE
5
263
100
AcDbEntity
8
0
100
AcDbLine
62
7
6
CONTINUOUS
10
43.7077655546
20
20.4014708761
11
42.8277655546
21
20.4014708761
0
LINE
5
264
100
AcDbEntity
8
0
100
AcDbLine
62
7
6
CONTINUOUS
10
42.8277655546
20
23.4014708761
11
57.2277655546
21
23.4014708761
0
LINE
5
265
100
AcDbEntity
8
0
100
AcDbLine
62
7
6
CONTINUOUS
10
57.2277655546
20
23.4014708761
11
57.2277655546
21
14.4014708761
0
LINE
5
266
100
AcDbEntity
8
0
100
AcDbLine
62
7
6
CONTINUOUS
10
86.9626460633
20
45.8478347110
11
87.3626460633
21
45.8478347110
0
LINE
5
267
100
AcDbEntity
8
0
100
AcDbLine
62
7
6
CONTINUOUS
10
86.9626460633
20
46.3478347110
11
87.3626460633
21
46.3478347110
0
LINE
5
268
100
AcDbEntity
8
0
100
AcDbLine
62
7
6
CONTINUOUS
10
77.9626460633
20
60.3478347110
11
77.9626460633
21
49.3478347110
0
LINE
5
269
100
AcDbEntity
8
0
100
AcDbLine
62
7
6
CONTINUOUS
10
87.3626460633
20
48.8435581780
11
86.9626460633
21
48.8435581780
0
LINE
5
26A
100
AcDbEntity
8
0
100
AcDbLine
62
7
6
CONTINUOUS
10
77.9626460633
20
49.3478347110
11
86.9626460633
21
49.3478347110
0
LINE
5
26B
100
AcDbEntity
8
0
100
AcDbLine
62
7
6
CONTINUOUS
10
87.3626460633
20
49.6478347110
11
86.9626460633
21
49.6478347110
0
LINE
5
26C
100
AcDbEntity
8
0
100
AcDbLine
62
7
6
CONTINUOUS
10
81.9626460633
20
46.3478347110
11
81.9626460633
21
49.3478347110
0
LINE
5
26D
100
AcDbEntity
8
0
100
AcDbLine
62
7
6
CONTINUOUS
10
82.9626460633
20
49.3478347110
11
82.9626460633
21
46.3478347110
0
LINE
5
26E
100
AcDbEntity
8
0
100
AcDbLine
62
7
6
CONTINUOUS
10
86.9626460633
20
45.8478375754
11
86.9626460633
21
60.3478347110
0
LINE
5
26F
100
AcDbEntity
8
0
100
AcDbLine
62
7
6
CONTINUOUS
10
87.3626460633
20
45.8478375754
11
87.3626460633
21
51.8579367620
0
LINE
5
270
100
AcDbEntity
8
0
100
AcDbLine
62
7
6
CONTINUOUS
10
86.9626460633
20
60.3478347110
11
77.9626460633
21
60.3478347110
0
LINE
5
271
100
AcDbEntity
8
0
100
AcDbLine
62
7
6
CONTINUOUS
10
108.2744349796
20
80.1185244160
11
109.0370396462
21
78.5644994953
0
LINE
5
272
100
AcDbEntity
8
0
100
AcDbLine
62
7
6
CONTINUOUS
10
109.1033898742
20
80.1185244160
11
107.8832224077
21
82.6049642891
0
LINE
5
273
100
AcDbEntity
8
0
100
AcDbLine
62
7
6
CONTINUOUS
10
107.8832224077
20
82.6049642891
11
107.9800489371
21
82.9182950529
0
LINE
5
274
100
AcDbEntity
8
0
100
AcDbLine
62
7
6
CONTINUOUS
10
109.0370396462
20
78.5644994953
11
122.3003179598
21
78.5644994953
0
LINE
5
275
100
AcDbEntity
8
0
100
AcDbLine
62
7
6
CONTINUOUS
10
108.5947422827
20
81.1550392286
11
108.2744349796
21
80.1185244160
0
LINE
5
276
100
AcDbEntity
8
0
100
AcDbLine
62
7
6
CONTINUOUS
10
109.1033898742
20
80.1185244160
11
108.2744349796
21
80.1185244160
0
LINE
5
277
100
AcDbEntity
8
0
100
AcDbLine
62
7
6
CONTINUOUS
10
107.8832224077
20
82.6049642891
11
117.0938323477
21
82.6049642891
0
LINE
5
278
100
AcDbEntity
8
0
100
AcDbLine
62
7
6
CONTINUOUS
10
116.9400719417
20
82.9182950529
11
107.9800489371
21
82.9182950529
0
LINE
5
279
100
AcDbEntity
8
0
100
AcDbLine
62
7
6
CONTINUOUS
10
117.1607761152
20
84.3454722002
11
118.5423676062
21
84.3454722002
0
LINE
5
27A
100
AcDbEntity
8
0
100
AcDbLine
62
7
6
CONTINUOUS
10
115.7211439479
20
85.4022091463
11
117.8997408585
21
92.4521513329
0
LINE
5
27B
100
AcDbEntity
8
0
100
AcDbLine
62
7
6
CONTINUOUS
10
120.2071032470
20
85.1299353824
11
120.3015710893
21
85.1299353824
0
LINE
5
27C
100
AcDbEntity
8
0
100
AcDbLine
62
7
6
CONTINUOUS
10
118.9448574269
20
85.4022091463
11
118.0237964329
21
85.4022091463
0
LINE
5
27D
100
AcDbEntity
8
0
100
AcDbLine
62
7
6
CONTINUOUS
10
115.7211439479
20
85.4022091463
11
116.6422049419
21
85.4022091463
0
LINE
5
27E
100
AcDbEntity
8
0
100
AcDbLine
62
7
6
CONTINUOUS
10
118.0603395030
20
85.5204625647
11
117.5238756003
21
85.5204625647
0
LINE
5
27F
100
AcDbEntity
8
0
100
AcDbLine
62
7
6
CONTINUOUS
10
117.0938323477
20
82.6049642891
11
115.7211439479
21
85.4022091463
0
LINE
5
280
100
AcDbEntity
8
0
100
AcDbLine
62
7
6
CONTINUOUS
10
118.8208018525
20
92.4521513329
11
116.6422049419
21
85.4022091463
0
LINE
5
281
100
AcDbEntity
8
0
100
AcDbLine
62
7
6
CONTINUOUS
10
118.5187107408
20
91.1528389748
11
117.0663128003
21
86.4528775171
0
LINE
5
282
100
AcDbEntity
8
0
100
AcDbLine
62
7
6
CONTINUOUS
10
116.6422049419
20
85.4022091463
11
117.1607761152
21
84.3454722002
0
LINE
5
283
100
AcDbEntity
8
0
100
AcDbLine
62
7
6
CONTINUOUS
10
119.3393730258
20
91.3954143869
11
119.2644115539
21
91.1528389748
0
LINE
5
284
100
AcDbEntity
8
0
100
AcDbLine
62
7
6
CONTINUOUS
10
117.5238756003
20
85.5204625647
11
117.1607761152
21
84.3454722002
0
LINE
5
285
100
AcDbEntity
8
0
100
AcDbLine
62
7
6
CONTINUOUS
10
117.0663128003
20
86.4528775171
11
118.3484775162
21
86.4528775171
0
LINE
5
286
100
AcDbEntity
8
0
100
AcDbLine
62
7
6
CONTINUOUS
10
117.0663128003
20
86.4528775171
11
117.5238756003
21
85.5204625647
0
LINE
5
287
100
AcDbEntity
8
0
100
AcDbLine
62
7
6
CONTINUOUS
10
118.0237964329
20
85.4022091463
11
120.2023933435
21
92.4521513329
0
LINE
5
288
100
AcDbEntity
8
0
100
AcDbLine
62
7
6
CONTINUOUS
10
120.2066620277
20
87.1299353824
11
120.3015710893
21
87.1299353824
0
LINE
5
289
100
AcDbEntity
8
0
100
AcDbLine
62
7
6
CONTINUOUS
10
118.5423676062
20
84.3454722002
11
118.0237964329
21
85.4022091463
0
LINE
5
28A
100
AcDbEntity
8
0
100
AcDbLine
62
7
6
CONTINUOUS
10
121.1234543375
20
92.4521513329
11
118.9448574269
21
85.4022091463
0
LINE
5
28B
100
AcDbEntity
8
0
100
AcDbLine
62
7
6
CONTINUOUS
10
118.9448574269
20
85.4022091463
11
122.3003179598
21
78.5644994953
0
LINE
5
28C
100
AcDbEntity
8
0
100
AcDbLine
62
7
6
CONTINUOUS
10
120.6174980356
20
85.4049544362
11
120.4662145236
21
85.2237091997
0
LINE
5
28D
100
AcDbEntity
8
0
100
AcDbLine
62
7
6
CONTINUOUS
10
120.6174980356
20
86.8549163285
11
120.4662145236
21
87.0361615651
0
LINE
5
28E
100
AcDbEntity
8
0
100
AcDbLine
62
7
6
CONTINUOUS
10
108.9725208630
20
90.2299353824
11
117.2130241910
21
90.2299353824
0
LINE
5
28F
100
AcDbEntity
8
0
100
AcDbLine
62
7
6
CONTINUOUS
10
120.6794363468
20
86.7565969101
11
120.6174763942
21
86.8549413372
0
LINE
5
290
100
AcDbEntity
8
0
100
AcDbLine
62
7
6
CONTINUOUS
10
119.8008754567
20
91.1528389748
11
118.5187107408
21
91.1528389748
0
LINE
5
291
100
AcDbEntity
8
0
100
AcDbLine
62
7
6
CONTINUOUS
10
119.8758369286
20
91.3954143869
11
119.3393730258
21
91.3954143869
0
LINE
5
292
100
AcDbEntity
8
0
100
AcDbLine
62
7
6
CONTINUOUS
10
119.3393730258
20
91.3954143869
11
118.8208018525
21
92.4521513329
0
LINE
5
293
100
AcDbEntity
8
0
100
AcDbLine
62
7
6
CONTINUOUS
10
121.1234543375
20
92.4521513329
11
120.2023933435
21
92.4521513329
0
LINE
5
294
100
AcDbEntity
8
0
100
AcDbLine
62
7
6
CONTINUOUS
10
118.8208018525
20
92.4521513329
11
117.8997408585
21
92.4521513329
0
LINE
5
295
100
AcDbEntity
8
0
100
AcDbLine
62
7
6
CONTINUOUS
10
122.3003179598
20
78.5644994953
11
124.4789148705
21
85.6144416820
0
LINE
5
296
100
AcDbEntity
8
0
100
AcDbLine
62
7
6
CONTINUOUS
10
124.4789148705
20
85.6144416820
11
121.1234543375
21
92.4521513329
0
ARC
5
297
100
AcDbEntity
8
0
100
AcDbCircle
62
7
6
CONTINUOUS
10
43.8477655546
20
57.4678347110
40
0.5000000000
100
AcDbArc
50
106.2602047083
51
180.0000000000
0
ARC
5
298
100
AcDbEntity
8
0
100
AcDbCircle
62
7
6
CONTINUOUS
10
46.5277655546
20
46.3478347110
40
0.5000000000
100
AcDbArc
50
180.0000000000
51
360.0000000000
0
ARC
5
299
100
AcDbEntity
8
0
100
AcDbCircle
62
7
6
CONTINUOUS
10
17.7082023802
20
55.8478347110
40
4.1000000000
100
AcDbArc
50
0.0000000000
51
180.0000000000
0
ARC
5
29A
100
AcDbEntity
8
0
100
AcDbCircle
62
7
6
CONTINUOUS
10
13.3082023802
20
51.8579367620
40
0.5000000000
100
AcDbArc
50
101.5369590241
51
180.0000003095
0
ARC
5
29B
100
AcDbEntity
8
0
100
AcDbCircle
62
7
6
CONTINUOUS
10
17.7082023802
20
46.3478347110
40
0.5000000000
100
AcDbArc
50
180.0000000000
51
360.0000000000
0
CIRCLE
5
29C
100
AcDbEntity
8
0
100
AcDbCircle
62
7
6
CONTINUOUS
10
82.4626460633
20
55.8478347110
40
1.0000000000
0
ARC
5
29D
100
AcDbEntity
8
0
100
AcDbCircle
62
7
6
CONTINUOUS
10
82.4626460633
20
46.3478347110
40
0.5000000000
100
AcDbArc
50
180.0000000000
51
360.0000000000
0
CIRCLE
5
29E
100
AcDbEntity
8
0
100
AcDbCircle
62
7
6
CONTINUOUS
10
82.4626460633
20
55.8478347110
40
3.2500000000
0
ARC
5
29F
100
AcDbEntity
8
0
100
AcDbCircle
62
7
6
CONTINUOUS
10
86.8626460633
20
51.8579367620
40
0.5000000000
100
AcDbArc
50
0.0000000000
51
78.4630409669
0
CIRCLE
5
2A0
100
AcDbEntity
8
0
100
AcDbCircle
62
7
6
CONTINUOUS
10
82.4626460633
20
55.8478347110
40
0.8000000000
0
SPLINE
5
2A1
100
AcDbEntity
8
0
100
AcDbSpline
62
7
6
CONTINUOUS
70
0
71
3
72
11
73
7
74
5
42
0.0000001000
43
0.0000001000
44
0.0000000001
12
-0.7025751816
22
1.4316976918
32
0.0000000000
13
-0.2020347244
23
1.5822608476
33
0.0000000000
40
0.0000000000
40
0.0000000000
40
0.0000000000
40
0.0000000000
40
0.2489822010
40
0.5283693503
40
0.8324243740
40
1.0000000000
40
1.0000000000
40
1.0000000000
40
1.0000000000
10
120.6201287310
20
83.5841229261
30
0.0000000000
10
120.5618191593
20
83.7029453403
30
0.0000000000
10
120.4557277094
20
83.9638585073
30
0.0000000000
10
120.3313802147
20
84.3891065007
30
0.0000000000
10
120.2518225446
20
84.7807709700
30
0.0000000000
10
120.2155119518
20
85.0289363344
30
0.0000000000
10
120.2042265867
20
85.1173191184
30
0.0000000000
11
120.6201287310
21
83.5841229261
31
0.0000000000
11
120.4678645694
21
83.9508443128
31
0.0000000000
11
120.3408777314
21
84.3779305381
31
0.0000000000
11
120.2430384174
21
84.8528628076
31
0.0000000000
11
120.2042265867
21
85.1173191184
31
0.0000000000
0
SPLINE
5
2A2
100
AcDbEntity
8
0
100
AcDbSpline
62
7
6
CONTINUOUS
70
0
71
3
72
12
73
8
74
6
42
0.0000001000
43
0.0000001000
44
0.0000000001
12
-0.2572882481
22
2.0149859031
32
0.0000000000
13
0.2574578359
23
2.0150001942
33
0.0000000000
40
0.0000000000
40
0.0000000000
40
0.0000000000
40
0.0000000000
40
0.1202339904
40
0.3830593431
40
0.6488346789
40
0.9106259288
40
1.0000000000
40
1.0000000000
40
1.0000000000
40
1.0000000000
10
120.2042265867
20
85.1173191184
30
0.0000000000
10
120.1939149891
20
85.1980757170
30
0.0000000000
10
120.1653616211
20
85.4559123401
30
0.0000000000
10
120.1387903775
20
85.8946741351
30
0.0000000000
10
120.1408771840
20
86.4301185952
30
0.0000000000
10
120.1694540990
20
86.8470994234
30
0.0000000000
10
120.1966626441
20
87.0833415413
30
0.0000000000
10
120.2043326624
20
87.1433711316
30
0.0000000000
11
120.2042265867
21
85.1173191184
31
0.0000000000
11
120.1772580022
21
85.3600525275
31
0.0000000000
11
120.1446078197
21
85.8928375465
31
0.0000000000
11
120.1467360904
21
86.4326091291
31
0.0000000000
11
120.1835218919
21
86.9630193560
31
0.0000000000
11
120.2043326624
21
87.1433711316
31
0.0000000000
0
SPLINE
5
2A3
100
AcDbEntity
8
0
100
AcDbSpline
62
7
6
CONTINUOUS
70
0
71
3
72
15
73
11
74
9
42
0.0000001000
43
0.0000001000
44
0.0000000001
12
0.3422561193
22
2.6786760811
32
0.0000000000
13
2.7119695959
23
0.0037978668
33
0.0000000000
40
0.0000000000
40
0.0000000000
40
0.0000000000
40
0.0000000000
40
0.1221077707
40
0.2997083654
40
0.4621005191
40
0.6065783025
40
0.7315100374
40
0.8369322418
40
0.9255792056
40
1.0000000000
40
1.0000000000
40
1.0000000000
40
1.0000000000
10
120.2043326624
20
87.1433711316
30
0.0000000000
10
120.2182633730
20
87.2524001865
30
0.0000000000
10
120.2584897977
20
87.5192324708
30
0.0000000000
10
120.3453768422
20
87.9263685601
30
0.0000000000
10
120.4726967203
20
88.3440337583
30
0.0000000000
10
120.6244068843
20
88.7027481422
30
0.0000000000
10
120.7969483531
20
88.9941971094
30
0.0000000000
10
120.9873771887
20
89.2119322304
30
0.0000000000
10
121.1920141709
20
89.3481571007
30
0.0000000000
10
121.3396442170
20
89.3798283525
30
0.0000000000
10
121.4069198609
20
89.3799225659
30
0.0000000000
11
120.2043326624
21
87.1433711316
31
0.0000000000
11
120.2537185324
21
87.4693666125
31
0.0000000000
11
120.3551735677
21
87.9380101149
31
0.0000000000
11
120.4850134493
21
88.3567822307
31
0.0000000000
11
120.6397176049
21
88.7148644439
31
0.0000000000
11
120.8151869304
21
89.0029303022
31
0.0000000000
11
121.0068531580
21
89.2133501683
31
0.0000000000
11
121.2097555765
21
89.3402841669
31
0.0000000000
11
121.4069198609
21
89.3799225659
31
0.0000000000
0
SPLINE
5
2A4
100
AcDbEntity
8
0
100
AcDbSpline
62
7
6
CONTINUOUS
70
0
71
3
72
12
73
8
74
6
42
0.0000001000
43
0.0000001000
44
0.0000000001
12
-1.1107819431
22
-0.0015555491
32
0.0000000000
13
-0.4871647284
23
0.9927373402
33
0.0000000000
40
0.0000000000
40
0.0000000000
40
0.0000000000
40
0.0000000000
40
0.0101054888
40
0.2021293203
40
0.4226336047
40
0.6867652480
40
1.0000000000
40
1.0000000000
40
1.0000000000
40
1.0000000000
10
121.4067687032
20
82.8799481989
30
0.0000000000
10
121.4030270384
20
82.8799429590
30
0.0000000000
10
121.3281926735
20
82.8807266107
30
0.0000000000
10
121.1726930007
20
82.9200583733
30
0.0000000000
10
120.9663711721
20
83.0672334644
30
0.0000000000
10
120.7765998647
20
83.2945997040
30
0.0000000000
10
120.6709943719
20
83.4804696479
30
0.0000000000
10
120.6201287310
20
83.5841229261
30
0.0000000000
11
121.4067687032
21
82.8799481989
31
0.0000000000
11
121.3955454875
21
82.8800663759
31
0.0000000000
11
121.1888045804
21
82.9285306465
31
0.0000000000
11
120.9864021288
21
83.0645128741
31
0.0000000000
11
120.7949173110
21
83.2850731111
31
0.0000000000
11
120.6201287310
21
83.5841229261
31
0.0000000000
0
SPLINE
5
2A5
100
AcDbEntity
8
0
100
AcDbSpline
62
7
6
CONTINUOUS
70
0
71
3
72
9
73
5
74
3
42
0.0000001000
43
0.0000001000
44
0.0000000001
12
0.1945254973
22
-0.0001862098
32
0.0000000000
13
0.1246097435
23
-0.1504125855
33
0.0000000000
40
0.0000000000
40
0.0000000000
40
0.0000000000
40
0.0000000000
40
0.4593322201
40
1.0000000000
40
1.0000000000
40
1.0000000000
40
1.0000000000
10
120.3015710887
20
87.1299347765
30
0.0000000000
10
120.3313550315
20
87.1299062658
30
0.0000000000
10
120.3962633049
20
87.1088586644
30
0.0000000000
10
120.4437706717
20
87.0632806107
30
0.0000000000
10
120.4662281628
20
87.0361728645
30
0.0000000000
11
120.3015710887
21
87.1299347765
31
0.0000000000
11
120.3873126049
21
87.1053949987
31
0.0000000000
11
120.4662281628
21
87.0361728645
31
0.0000000000
0
SPLINE
5
2A6
100
AcDbEntity
8
0
100
AcDbSpline
62
7
6
CONTINUOUS
70
0
71
3
72
10
73
6
74
4
42
0.0000001000
43
0.0000001000
44
0.0000000001
12
0.1945523379
22
-0.0001862355
32
0.0000000000
13
0.1245489459
23
0.1504245553
33
0.0000000000
40
0.0000000000
40
0.0000000000
40
0.0000000000
40
0.0000000000
40
0.0048081365
40
0.4701836556
40
1.0000000000
40
1.0000000000
40
1.0000000000
40
1.0000000000
10
120.3015710898
20
85.1299359883
30
0.0000000000
10
120.3018829012
20
85.1299356898
30
0.0000000000
10
120.3323743506
20
85.1300098150
30
0.0000000000
10
120.3970700147
20
85.1517588666
30
0.0000000000
10
120.4442396499
20
85.1971258930
30
0.0000000000
10
120.4662356723
20
85.2236916890
30
0.0000000000
11
120.3015710898
21
85.1299359883
31
0.0000000000
11
120.3025065098
21
85.1299382674
31
0.0000000000
11
120.3891365400
21
85.1555447997
31
0.0000000000
11
120.4662356723
21
85.2236916890
31
0.0000000000
0
SPLINE
5
2A7
100
AcDbEntity
8
0
100
AcDbSpline
62
7
6
CONTINUOUS
70
0
71
3
72
16
73
12
74
10
42
0.0000001000
43
0.0000001000
44
0.0000000001
12
0.8975657533
22
1.0805010399
32
0.0000000000
13
-0.6170034282
23
1.2573207922
33
0.0000000000
40
0.0000000000
40
0.0000000000
40
0.0000000000
40
0.0000000000
40
0.0326775166
40
0.1266363776
40
0.2388423329
40
0.3653661125
40
0.5006670026
40
0.6379604582
40
0.7717301551
40
0.8944267543
40
1.0000000000
40
1.0000000000
40
1.0000000000
40
1.0000000000
10
120.6176807316
20
85.4048873019
30
0.0000000000
10
120.6274574715
20
85.4166566655
30
0.0000000000
10
120.6621226850
20
85.4649765976
30
0.0000000000
10
120.7108613731
20
85.5659928853
30
0.0000000000
10
120.7555639966
20
85.7152160122
30
0.0000000000
10
120.7857467384
20
85.8875382432
30
0.0000000000
10
120.7994875369
20
86.0736439209
30
0.0000000000
10
120.7959424868
20
86.2635847449
30
0.0000000000
10
120.7751265603
20
86.4465582730
30
0.0000000000
10
120.7381619926
20
86.6118053100
30
0.0000000000
10
120.7011493649
20
86.7123504311
30
0.0000000000
10
120.6794363468
20
86.7565969101
30
0.0000000000
11
120.6176807316
21
85.4048873019
31
0.0000000000
11
120.6447601200
21
85.4419427162
31
0.0000000000
11
120.7041534182
21
85.5593714769
31
0.0000000000
11
120.7508095855
21
85.7094362880
31
0.0000000000
11
120.7822095811
21
85.8838353616
31
0.0000000000
11
120.7965210421
21
86.0727902333
31
0.0000000000
11
120.7928422402
21
86.2650418048
31
0.0000000000
11
120.7711058339
21
86.4511281660
31
0.0000000000
11
120.7324538133
21
86.6185679176
31
0.0000000000
11
120.6794363468
21
86.7565969101
31
0.0000000000
0
SPLINE
5
2A8
100
AcDbEntity
8
0
100
AcDbSpline
62
7
6
CONTINUOUS
70
0
71
3
72
23
73
19
74
17
42
0.0000001000
43
0.0000001000
44
0.0000000001
12
-3.5158433892
22
7.1645355497
32
0.0000000000
13
8.0301136860
23
0.0199480816
33
0.0000000000
40
0.0000000000
40
0.0000000000
40
0.0000000000
40
0.0000000000
40
0.0593901712
40
0.1257438567
40
0.1978332183
40
0.2739630697
40
0.3537697836
40
0.4348797826
40
0.5153795740
40
0.5935693215
40
0.6678584735
40
0.7368557581
40
0.7994073048
40
0.8546764674
40
0.9022901294
40
0.9425898592
40
0.9770268058
40
1.0000000000
40
1.0000000000
40
1.0000000000
40
1.0000000000
10
107.9800489371
20
82.9182950529
30
0.0000000000
10
107.9104467567
20
83.0601293840
30
0.0000000000
10
107.7830047088
20
83.3703229228
30
0.0000000000
10
107.6313517329
20
83.8749120069
30
0.0000000000
10
107.5118803118
20
84.4336620713
30
0.0000000000
10
107.4271780118
20
85.0347709342
30
0.0000000000
10
107.3796384924
20
85.6639975572
30
0.0000000000
10
107.3708195744
20
86.3065617283
30
0.0000000000
10
107.4010390798
20
86.9441751678
30
0.0000000000
10
107.4693254139
20
87.5606187288
30
0.0000000000
10
107.5737404508
20
88.1409784878
30
0.0000000000
10
107.7115006887
20
88.6715739845
30
0.0000000000
10
107.8791429598
20
89.1402783121
30
0.0000000000
10
108.0727270138
20
89.5367731898
30
0.0000000000
10
108.2884187360
20
89.8528668736
30
0.0000000000
10
108.5234196769
20
90.0822400517
30
0.0000000000
10
108.7572920450
20
90.2067538828
30
0.0000000000
10
108.9112631473
20
90.2295967742
30
0.0000000000
10
108.9727556010
20
90.2297495312
30
0.0000000000
11
107.9800489371
21
82.9182950529
31
0.0000000000
11
107.7969889543
21
83.3554929617
31
0.0000000000
11
107.6424201089
21
83.8619819877
31
0.0000000000
11
107.5206279930
21
84.4242672154
31
0.0000000000
11
107.4348960856
21
85.0257583824
31
0.0000000000
11
107.3863917817
21
85.6608229714
31
0.0000000000
11
107.3774143797
21
86.3080760573
31
0.0000000000
11
107.4081530935
21
86.9497857182
31
0.0000000000
11
107.4776195888
21
87.5699167238
31
0.0000000000
11
107.5838544253
21
88.1532014078
31
0.0000000000
11
107.7240689817
21
88.6856977102
31
0.0000000000
11
107.8947372416
21
89.1548231731
31
0.0000000000
11
108.0916688313
21
89.5495076126
31
0.0000000000
11
108.3101205389
21
89.8604286055
31
0.0000000000
11
108.5449550235
21
90.0801840837
31
0.0000000000
11
108.7906885920
21
90.2032582035
31
0.0000000000
11
108.9727556010
21
90.2297495312
31
0.0000000000
0
SPLINE
5
2A9
100
AcDbEntity
8
0
100
AcDbSpline
62
7
6
CONTINUOUS
70
0
71
3
72
20
73
16
74
14
42
0.0000001000
43
0.0000001000
44
0.0000000001
12
-1.1019893482
22
1.3270995729
32
0.0000000000
13
0.7536299322
23
-1.5357363349
33
0.0000000000
40
0.0000000000
40
0.0000000000
40
0.0000000000
40
0.0000000000
40
0.0019466999
40
0.0560193092
40
0.1004054469
40
0.1475052869
40
0.2080446080
40
0.2849695507
40
0.3768335494
40
0.4804196762
40
0.5911917003
40
0.7035950553
40
0.8131134781
40
0.9135662588
40
1.0000000000
40
1.0000000000
40
1.0000000000
40
1.0000000000
10
120.6174686214
20
86.8549348829
30
0.0000000000
10
120.6167535405
20
86.8557960378
30
0.0000000000
10
120.5960574510
20
86.8804957961
30
0.0000000000
10
120.5527748062
20
86.9204970241
30
0.0000000000
10
120.4658024121
20
86.9375735316
30
0.0000000000
10
120.3846932440
20
86.8953254521
30
0.0000000000
10
120.3178649995
20
86.8123478397
30
0.0000000000
10
120.2607052030
20
86.6938778795
30
0.0000000000
10
120.2160025796
20
86.5446547526
30
0.0000000000
10
120.1858198377
20
86.3723325216
30
0.0000000000
10
120.1720790392
20
86.1862268438
30
0.0000000000
10
120.1756240893
20
85.9962860199
30
0.0000000000
10
120.1964400158
20
85.8133124918
30
0.0000000000
10
120.2334045835
20
85.6480654548
30
0.0000000000
10
120.2704172112
20
85.5475203336
30
0.0000000000
10
120.2921302293
20
85.5032738547
30
0.0000000000
11
120.6174686214
21
86.8549348829
31
0.0000000000
11
120.6153109715
21
86.8575098202
31
0.0000000000
11
120.5436568673
21
86.9160090899
31
0.0000000000
11
120.4688017439
21
86.9287442251
31
0.0000000000
11
120.3953967767
21
86.8955219485
31
0.0000000000
11
120.3268064561
21
86.8179280486
31
0.0000000000
11
120.2674131580
21
86.7004992879
31
0.0000000000
11
120.2207569907
21
86.5504344768
31
0.0000000000
11
120.1893569950
21
86.3760354032
31
0.0000000000
11
120.1750455340
21
86.1870805315
31
0.0000000000
11
120.1787243359
21
85.9948289600
31
0.0000000000
11
120.2004607422
21
85.8087425988
31
0.0000000000
11
120.2391127628
21
85.6413028472
31
0.0000000000
11
120.2921302293
21
85.5032738547
31
0.0000000000
0
SPLINE
5
2AA
100
AcDbEntity
8
0
100
AcDbSpline
62
7
6
CONTINUOUS
70
0
71
3
72
9
73
5
74
3
42
0.0000001000
43
0.0000001000
44
0.0000000001
12
0.0889523757
22
-0.0604057380
32
0.0000000000
13
0.1071494865
23
-0.0001025690
33
0.0000000000
40
0.0000000000
40
0.0000000000
40
0.0000000000
40
0.0000000000
40
0.1661011968
40
1.0000000000
40
1.0000000000
40
1.0000000000
40
1.0000000000
10
120.2006355047
20
85.1639388101
30
0.0000000000
10
120.2055605367
20
85.1605943217
30
0.0000000000
10
120.2360340542
20
85.1415580418
30
0.0000000000
10
120.2717871470
20
85.1299644990
30
0.0000000000
10
120.3015710898
20
85.1299359883
30
0.0000000000
11
120.2006355047
21
85.1639388101
31
0.0000000000
11
120.2158295736
21
85.1544757661
31
0.0000000000
11
120.3015710898
21
85.1299359883
31
0.0000000000
0
SPLINE
5
2AB
100
AcDbEntity
8
0
100
AcDbSpline
62
7
6
CONTINUOUS
70
0
71
3
72
22
73
18
74
16
42
0.0000001000
43
0.0000001000
44
0.0000000001
12
2.7867050383
22
-5.6787078099
32
0.0000000000
13
-6.3539526923
23
-0.0088981330
33
0.0000000000
40
0.0000000000
40
0.0000000000
40
0.0000000000
40
0.0000000000
40
0.0627725980
40
0.1332107945
40
0.2098681768
40
0.2907199810
40
0.3751045405
40
0.4604362424
40
0.5444887856
40
0.6253014226
40
0.7011042239
40
0.7704158170
40
0.8320812676
40
0.8854041491
40
0.9304000480
40
0.9682360034
40
1.0000000000
40
1.0000000000
40
1.0000000000
40
1.0000000000
10
122.1935598331
20
88.6757478387
30
0.0000000000
10
122.2518694048
20
88.5569254245
30
0.0000000000
10
122.3579608547
20
88.2960122575
30
0.0000000000
10
122.4823083494
20
87.8707642640
30
0.0000000000
10
122.5780861005
20
87.3992479163
30
0.0000000000
10
122.6429381097
20
86.8929423727
30
0.0000000000
10
122.6748981866
20
86.3651966297
30
0.0000000000
10
122.6728113802
20
85.8297521695
30
0.0000000000
10
122.6367154603
20
85.3030575796
30
0.0000000000
10
122.5678398704
20
84.7998720918
30
0.0000000000
10
122.4683117219
20
84.3335022046
30
0.0000000000
10
122.3409918438
20
83.9158370065
30
0.0000000000
10
122.1892816798
20
83.5571226226
30
0.0000000000
10
122.0167402111
20
83.2656736554
30
0.0000000000
10
121.8263113754
20
83.0479385344
30
0.0000000000
10
121.6216743932
20
82.9117136640
30
0.0000000000
10
121.4740443471
20
82.8800424123
30
0.0000000000
10
121.4067687032
20
82.8799481989
30
0.0000000000
11
122.1935598331
21
88.6757478387
31
0.0000000000
11
122.3458239947
21
88.3090264520
31
0.0000000000
11
122.4728108328
21
87.8819402267
31
0.0000000000
11
122.5706501467
21
87.4070079572
31
0.0000000000
11
122.6364305619
21
86.8998182372
31
0.0000000000
11
122.6690807444
21
86.3670332183
31
0.0000000000
11
122.6669524737
21
85.8272616357
31
0.0000000000
11
122.6301666722
21
85.2968514088
31
0.0000000000
11
122.5599700317
21
84.7905041523
31
0.0000000000
11
122.4585149964
21
84.3218606498
31
0.0000000000
11
122.3286751149
21
83.9030885341
31
0.0000000000
11
122.1739709592
21
83.5450063209
31
0.0000000000
11
121.9985016337
21
83.2569404626
31
0.0000000000
11
121.8068354061
21
83.0465205964
31
0.0000000000
11
121.6039329876
21
82.9195865979
31
0.0000000000
11
121.4067687032
21
82.8799481989
31
0.0000000000
0
SPLINE
5
2AC
100
AcDbEntity
8
0
100
AcDbSpline
62
7
6
CONTINUOUS
70
0
71
3
72
10
73
6
74
4
42
0.0000001000
43
0.0000001000
44
0.0000000001
12
0.0895150569
22
0.0612445640
32
0.0000000000
13
0.1080353805
23
-0.0001034170
33
0.0000000000
40
0.0000000000
40
0.0000000000
40
0.0000000000
40
0.0000000000
40
0.1532835908
40
0.9913414087
40
1.0000000000
40
1.0000000000
40
1.0000000000
40
1.0000000000
10
120.1999212698
20
87.0954230517
30
0.0000000000
10
120.2044949996
20
87.0985523140
30
0.0000000000
10
120.2348421702
20
87.1177836491
30
0.0000000000
10
120.2707678279
20
87.1298609497
30
0.0000000000
10
120.3012592773
20
87.1299350750
30
0.0000000000
10
120.3015710887
20
87.1299347765
30
0.0000000000
11
120.1999212698
21
87.0954230517
31
0.0000000000
11
120.2140056385
21
87.1043259651
31
0.0000000000
11
120.3006356688
21
87.1299324973
31
0.0000000000
11
120.3015710887
21
87.1299347765
31
0.0000000000
0
SPLINE
5
2AD
100
AcDbEntity
8
0
100
AcDbSpline
62
7
6
CONTINUOUS
70
0
71
3
72
12
73
8
74
6
42
0.0000001000
43
0.0000001000
44
0.0000000001
12
1.1107819431
22
0.0015555491
32
0.0000000000
13
0.4871647284
23
-0.9927373402
33
0.0000000000
40
0.0000000000
40
0.0000000000
40
0.0000000000
40
0.0000000000
40
0.0101054888
40
0.2021293203
40
0.4226336047
40
0.6867652480
40
1.0000000000
40
1.0000000000
40
1.0000000000
40
1.0000000000
10
121.4069198609
20
89.3799225659
30
0.0000000000
10
121.4106615257
20
89.3799278058
30
0.0000000000
10
121.4854958907
20
89.3791441541
30
0.0000000000
10
121.6409955634
20
89.3398123914
30
0.0000000000
10
121.8473173920
20
89.1926373004
30
0.0000000000
10
122.0370886994
20
88.9652710608
30
0.0000000000
10
122.1426941922
20
88.7794011169
30
0.0000000000
10
122.1935598331
20
88.6757478387
30
0.0000000000
11
121.4069198609
21
89.3799225659
31
0.0000000000
11
121.4181430767
21
89.3798043889
31
0.0000000000
11
121.6248839837
21
89.3313401183
31
0.0000000000
11
121.8272864353
21
89.1953578906
31
0.0000000000
11
122.0187712532
21
88.9747976537
31
0.0000000000
11
122.1935598331
21
88.6757478387
31
0.0000000000
0
SPLINE
5
2AE
100
AcDbEntity
8
0
100
AcDbSpline
62
7
6
CONTINUOUS
70
0
71
3
72
12
73
8
74
6
42
0.0000001000
43
0.0000001000
44
0.0000000001
12
0.1878323305
22
-0.3827620461
32
0.0000000000
13
0.2732429993
23
0.3289333887
33
0.0000000000
40
0.0000000000
40
0.0000000000
40
0.0000000000
40
0.0000000000
40
0.2804251944
40
0.4973779242
40
0.6754661260
40
0.8644423744
40
1.0000000000
40
1.0000000000
40
1.0000000000
40
1.0000000000
10
120.2921302293
20
85.5032738547
30
0.0000000000
10
120.3096878686
20
85.4674951476
30
0.0000000000
10
120.3462192339
20
85.4064442853
30
0.0000000000
10
120.4187917699
20
85.3393737407
30
0.0000000000
10
120.5057641640
20
85.3222972332
30
0.0000000000
10
120.5725997636
20
85.3571105076
30
0.0000000000
10
120.6053340075
20
85.3900241589
30
0.0000000000
10
120.6176807316
20
85.4048873019
30
0.0000000000
11
120.2921302293
21
85.5032738547
31
0.0000000000
11
120.3562556046
21
85.4023609445
31
0.0000000000
11
120.4279097088
21
85.3438616748
31
0.0000000000
11
120.5027648322
21
85.3311265397
31
0.0000000000
11
120.5761697994
21
85.3643488163
31
0.0000000000
11
120.6176807316
21
85.4048873019
31
0.0000000000
0
ENDSEC
0
SECTION
2
OBJECTS
0
DICTIONARY
5
2AF
100
AcDbDictionary
3
ACAD_GROUP
350
2B0
3
ACAD_MLINESTYLE
350
2B1
0
DICTIONARY
5
2B0
102
{ACAD_REACTORS
330
2AF
102
}
100
AcDbDictionary
0
DICTIONARY
5
2B1
102
{ACAD_REACTORS
330
2AF
102
}
100
AcDbDictionary
3
STANDARD
350
2B2
0
MLINESTYLE
5
2B2
102
{ACAD_REACTORS
330
2B1
102
}
100
AcDbMlineStyle
2
STANDARD
70
0
3

62
256
51
90.0
52
90.0
71
2
49
0.5
62
256
6
BYLAYER
49
-0.5
62
256
6
BYLAYER
0
ENDSEC
0
EOF
